<svg width="259" height="55" viewBox="0 0 259 55" fill="none" xmlns="http://www.w3.org/2000/svg">
<path d="M33.6177 11.031C33.8883 10.9352 34.4292 10.824 34.9512 11.0007C35.2565 11.104 36.5638 11.6225 37.8576 14.8572L47.1424 11.1433C45.0432 5.8952 41.8781 2.78806 38.1575 1.52864C34.6538 0.342615 31.6155 1.13154 30.2794 1.60469C30.0004 1.70352 29.7533 1.80441 29.5856 1.87379L29.4217 1.94181C29.3335 1.97853 29.2805 2.0006 29.2148 2.02648L13.3575 8.2733C13.3106 8.29175 13.2673 8.30909 13.2327 8.32299L13.1444 8.35843L13.0923 8.37909L13.0795 8.38401L13.0764 8.38519C13.0031 8.41233 12.7135 8.51085 12.3381 8.56252C11.9529 8.61553 11.6476 8.59609 11.4424 8.54028C11.3035 8.50251 11.152 8.44039 10.9491 8.19996C10.7114 7.91847 10.2356 7.18286 9.90291 5.51964L0.0971069 7.48081C0.673378 10.3622 1.72603 12.777 3.30798 14.6509C4.92459 16.5657 6.88375 17.6637 8.81814 18.1898C12.4293 19.1719 15.6527 18.0947 16.5474 17.7635C16.6722 17.7173 16.7823 17.6736 16.8579 17.6434L16.9485 17.607C16.9766 17.5957 16.9947 17.5884 17.0227 17.5774L32.8801 11.3306C33.2508 11.1845 33.3614 11.1352 33.4281 11.1054C33.482 11.0814 33.5073 11.0701 33.6177 11.031Z" fill="#36A2FF"/>
<path d="M33.5206 29.1248C33.7912 29.029 34.3321 28.9177 34.8541 29.0944C35.1594 29.1978 36.4667 29.7163 37.7605 32.9509L47.0453 29.237C44.9461 23.9889 41.781 20.8818 38.0604 19.6224C34.5567 18.4364 31.5184 19.2253 30.1823 19.6984C29.9033 19.7973 29.6562 19.8982 29.4885 19.9675L29.3246 20.0356C29.2364 20.0723 29.1834 20.0943 29.1177 20.1202L13.2604 26.3671C13.2135 26.3855 13.1702 26.4028 13.1356 26.4167L13.0473 26.4522L12.9952 26.4728L12.9824 26.4778L12.9793 26.4789C12.906 26.5061 12.6164 26.6046 12.241 26.6563C11.8558 26.7093 11.5505 26.6898 11.3453 26.634C11.2064 26.5963 11.0549 26.5341 10.8519 26.2937C10.6143 26.0122 10.1384 25.2766 9.80581 23.6134L0 25.5746C0.576271 28.4559 1.62893 30.8708 3.21087 32.7446C4.82748 34.6595 6.78665 35.7575 8.72103 36.2835C12.3322 37.2656 15.5555 36.1885 16.4503 35.8572C16.5751 35.811 16.6852 35.7674 16.7608 35.7371L16.8514 35.7008C16.8795 35.6894 16.8976 35.6822 16.9256 35.6711L32.7829 29.4243C33.1537 29.2783 33.2643 29.2289 33.331 29.1992C33.3849 29.1752 33.4102 29.1639 33.5206 29.1248Z" fill="#7275FF"/>
<path d="M33.5206 47.1248C33.7912 47.029 34.3321 46.9177 34.8541 47.0944C35.1594 47.1978 36.4667 47.7163 37.7605 50.9509L47.0453 47.237C44.9461 41.9889 41.781 38.8818 38.0604 37.6224C34.5567 36.4364 31.5184 37.2253 30.1823 37.6984C29.9033 37.7973 29.6562 37.8982 29.4885 37.9675L29.3246 38.0356C29.2364 38.0723 29.1834 38.0943 29.1177 38.1202L13.2604 44.3671C13.2135 44.3855 13.1702 44.4028 13.1356 44.4167L13.0473 44.4522L12.9952 44.4728L12.9824 44.4778L12.9793 44.4789C12.906 44.5061 12.6164 44.6046 12.241 44.6563C11.8558 44.7093 11.5505 44.6898 11.3453 44.634C11.2064 44.5963 11.0549 44.5341 10.8519 44.2937C10.6143 44.0122 10.1384 43.2766 9.80581 41.6134L0 43.5746C0.576271 46.4559 1.62893 48.8708 3.21087 50.7446C4.82748 52.6595 6.78665 53.7575 8.72103 54.2835C12.3322 55.2656 15.5555 54.1885 16.4503 53.8572C16.5751 53.811 16.6852 53.7674 16.7608 53.7371L16.8514 53.7008C16.8795 53.6894 16.8976 53.6822 16.9256 53.6711L32.7829 47.4243C33.1537 47.2783 33.2643 47.2289 33.331 47.1992C33.3849 47.1752 33.4102 47.1639 33.5206 47.1248Z" fill="#FFDA4B"/>
<path d="M72.8779 43.4395C70.7132 43.4395 69.0124 42.7559 67.7754 41.3887C66.5547 40.0215 65.9443 37.9951 65.9443 35.3096V24.0059H63.0391V18.5615H65.9443V10.6025L72.4873 9.89453V18.5615H79.0791V24.0059H72.4873V34.3574C72.4873 35.4479 72.6501 36.2454 72.9756 36.75C73.3011 37.2546 73.8382 37.5068 74.5869 37.5068C75.5472 37.5068 76.5807 37.222 77.6875 36.6523L79.3477 41.9014C78.4362 42.4059 77.5003 42.7884 76.54 43.0488C75.596 43.3092 74.3753 43.4395 72.8779 43.4395ZM92.1895 43.4395C86.1999 43.4395 83.2051 40.0622 83.2051 33.3076V18.5615H89.6992V31.5986C89.6992 33.7796 90.041 35.3177 90.7246 36.2129C91.4082 37.1081 92.5312 37.5557 94.0938 37.5557C95.6074 37.5557 96.8851 36.9372 97.9268 35.7002C98.9684 34.4469 99.4893 32.6973 99.4893 30.4512V18.5615H106.105V43H99.4893V40.0947L99.3916 40.0459C97.5199 42.3083 95.1191 43.4395 92.1895 43.4395ZM112.404 43V18.5615H118.947V22.1016H119.069C119.997 20.8483 121.096 19.888 122.365 19.2207C123.635 18.5371 124.986 18.1953 126.418 18.1953H126.906V25.3486C126.434 25.3161 125.848 25.2998 125.148 25.2998C123.179 25.2998 121.649 25.8857 120.559 27.0576C119.484 28.2295 118.947 29.7757 118.947 31.6963V43H112.404ZM144.802 43.4395C141.595 43.4395 139.097 42.292 137.307 39.9971L137.209 40.0459V43H131.008V6.20801H137.551V21.3447H137.6C139.455 19.2451 141.929 18.1953 145.021 18.1953C148.342 18.1953 151.092 19.3835 153.273 21.7598C155.471 24.1361 156.569 27.1634 156.569 30.8418C156.569 34.5853 155.463 37.6208 153.249 39.9482C151.052 42.2757 148.236 43.4395 144.802 43.4395ZM143.654 37.5557C145.493 37.5557 146.991 36.9372 148.146 35.7002C149.318 34.4469 149.904 32.8438 149.904 30.8906C149.904 28.8398 149.302 27.1878 148.098 25.9346C146.893 24.6813 145.396 24.0547 143.605 24.0547C141.734 24.0547 140.204 24.6976 139.016 25.9834C137.844 27.2692 137.258 28.9049 137.258 30.8906C137.258 32.86 137.868 34.4632 139.089 35.7002C140.31 36.9372 141.831 37.5557 143.654 37.5557ZM170.266 43.4395C164.276 43.4395 161.281 40.0622 161.281 33.3076V18.5615H167.775V31.5986C167.775 33.7796 168.117 35.3177 168.801 36.2129C169.484 37.1081 170.607 37.5557 172.17 37.5557C173.684 37.5557 174.961 36.9372 176.003 35.7002C177.045 34.4469 177.565 32.6973 177.565 30.4512V18.5615H184.182V43H177.565V40.0947L177.468 40.0459C175.596 42.3083 173.195 43.4395 170.266 43.4395ZM190.773 43V6.20801H197.341V43H190.773ZM214.406 43.4395C211.021 43.4395 208.229 42.2757 206.032 39.9482C203.851 37.6208 202.761 34.5853 202.761 30.8418C202.761 27.1634 203.851 24.1361 206.032 21.7598C208.229 19.3835 210.972 18.1953 214.26 18.1953C217.271 18.1953 219.672 19.2614 221.462 21.3936L221.56 21.3447V18.5615H228.103V43H221.853V40.0947L221.755 40.0459C219.997 42.3083 217.548 43.4395 214.406 43.4395ZM215.651 37.5557C217.377 37.5557 218.841 36.9372 220.046 35.7002C221.25 34.4469 221.853 32.8438 221.853 30.8906C221.853 28.9212 221.258 27.2936 220.07 26.0078C218.882 24.7057 217.409 24.0547 215.651 24.0547C213.845 24.0547 212.347 24.6813 211.159 25.9346C209.987 27.1715 209.401 28.8236 209.401 30.8906C209.401 32.8438 209.979 34.4469 211.135 35.7002C212.29 36.9372 213.796 37.5557 215.651 37.5557ZM257.082 30.5488C257.082 31.3301 257.033 32.1113 256.936 32.8926H239.772C240.179 34.3737 240.944 35.5293 242.067 36.3594C243.207 37.1895 244.598 37.6045 246.242 37.6045C248.716 37.6045 250.694 36.6849 252.175 34.8457L256.423 38.8008C254.047 41.8932 250.498 43.4395 245.778 43.4395C242.002 43.4395 238.926 42.2757 236.55 39.9482C234.174 37.6045 232.985 34.5365 232.985 30.7441C232.985 27.0332 234.141 24.014 236.452 21.6865C238.763 19.359 241.742 18.1953 245.388 18.1953C248.822 18.1953 251.63 19.359 253.811 21.6865C255.992 23.9977 257.082 26.9518 257.082 30.5488ZM245.339 23.9082C243.988 23.9082 242.824 24.2826 241.848 25.0312C240.871 25.7637 240.196 26.8216 239.821 28.2051H250.588C250.246 26.8704 249.628 25.8206 248.732 25.0557C247.854 24.2907 246.722 23.9082 245.339 23.9082Z" fill="#1D1E23"/>
</svg>
